<?xml version="1.0" encoding="UTF-8" standalone="no"?>
<!DOCTYPE svg PUBLIC "-//W3C//DTD SVG 1.1//EN"
 "http://www.w3.org/Graphics/SVG/1.1/DTD/svg11.dtd">
<!-- Generated by graphviz version 2.40.1 (20161225.0304)
 -->
<!-- Title: dependencies Pages: 1 -->
<svg width="2032pt" height="211pt"
 viewBox="0.00 0.00 2032.00 211.00" xmlns="http://www.w3.org/2000/svg" xmlns:xlink="http://www.w3.org/1999/xlink">
<g id="graph0" class="graph" transform="scale(1 1) rotate(0) translate(4 207)">
<title>dependencies</title>
<polygon fill="#ffffff" stroke="transparent" points="-4,4 -4,-207 2028,-207 2028,4 -4,4"/>
<text text-anchor="start" x="991.0091" y="-42.4" font-family="sans-serif" font-weight="bold" font-size="14.00" fill="#000000">Legend</text>
<polygon fill="#ffffb3" stroke="transparent" points="778,-10 778,-30 798,-30 798,-10 778,-10"/>
<text text-anchor="start" x="801.629" y="-15.4" font-family="sans-serif" font-size="14.00" fill="#000000"> &#160;Declarations</text>
<polygon fill="#8dd3c7" stroke="transparent" points="891,-10 891,-30 911,-30 911,-10 891,-10"/>
<text text-anchor="start" x="914.7251" y="-15.4" font-family="sans-serif" font-size="14.00" fill="#000000"> &#160;Module</text>
<polygon fill="#80b1d3" stroke="transparent" points="977,-10 977,-30 997,-30 997,-10 977,-10"/>
<text text-anchor="start" x="1000.7812" y="-15.4" font-family="sans-serif" font-size="14.00" fill="#000000"> &#160;Bootstrap</text>
<polygon fill="#fdb462" stroke="transparent" points="1074,-10 1074,-30 1094,-30 1094,-10 1074,-10"/>
<text text-anchor="start" x="1097.6732" y="-15.4" font-family="sans-serif" font-size="14.00" fill="#000000"> &#160;Providers</text>
<polygon fill="#fb8072" stroke="transparent" points="1170,-10 1170,-30 1190,-30 1190,-10 1170,-10"/>
<text text-anchor="start" x="1193.7258" y="-15.4" font-family="sans-serif" font-size="14.00" fill="#000000"> &#160;Exports</text>
<g id="clust1" class="cluster">
<title>cluster_AdminModule</title>
<polygon fill="none" stroke="#000000" stroke-dasharray="1,5" points="8,-70 8,-195 2016,-195 2016,-70 8,-70"/>
</g>
<g id="clust2" class="cluster">
<title>cluster_AdminModule_declarations</title>
<polygon fill="none" stroke="#000000" points="164,-78 164,-130 2008,-130 2008,-78 164,-78"/>
</g>
<g id="clust12" class="cluster">
<title>cluster_AdminModule_imports</title>
<polygon fill="none" stroke="#000000" points="16,-78 16,-130 156,-130 156,-78 16,-78"/>
</g>
<!-- AdminHomeComponent -->
<g id="node1" class="node">
<title>AdminHomeComponent</title>
<polygon fill="#ffffb3" stroke="#000000" points="2000.4326,-122 1845.5674,-122 1845.5674,-86 2000.4326,-86 2000.4326,-122"/>
<text text-anchor="middle" x="1923" y="-99.8" font-family="Times,serif" font-size="14.00" fill="#000000">AdminHomeComponent</text>
</g>
<!-- AdminModule -->
<g id="node10" class="node">
<title>AdminModule</title>
<polygon fill="#8dd3c7" stroke="#000000" points="1074.4386,-187 1071.4386,-191 1050.4386,-191 1047.4386,-187 975.5614,-187 975.5614,-151 1074.4386,-151 1074.4386,-187"/>
<text text-anchor="middle" x="1025" y="-164.8" font-family="Times,serif" font-size="14.00" fill="#000000">AdminModule</text>
</g>
<!-- AdminHomeComponent&#45;&gt;AdminModule -->
<g id="edge1" class="edge">
<title>AdminHomeComponent&#45;&gt;AdminModule</title>
<path fill="none" stroke="#000000" d="M1923,-122.0109C1923,-144.4852 1923,-180 1923,-180 1923,-180 1084.2383,-180 1084.2383,-180"/>
<polygon fill="#000000" stroke="#000000" points="1084.2384,-176.5001 1074.2383,-180 1084.2383,-183.5001 1084.2384,-176.5001"/>
</g>
<!-- CreateGebruikerComponent -->
<g id="node2" class="node">
<title>CreateGebruikerComponent</title>
<polygon fill="#ffffb3" stroke="#000000" points="1827.112,-122 1652.888,-122 1652.888,-86 1827.112,-86 1827.112,-122"/>
<text text-anchor="middle" x="1740" y="-99.8" font-family="Times,serif" font-size="14.00" fill="#000000">CreateGebruikerComponent</text>
</g>
<!-- CreateGebruikerComponent&#45;&gt;AdminModule -->
<g id="edge2" class="edge">
<title>CreateGebruikerComponent&#45;&gt;AdminModule</title>
<path fill="none" stroke="#000000" d="M1740,-122.1289C1740,-142.5724 1740,-173 1740,-173 1740,-173 1084.4269,-173 1084.4269,-173"/>
<polygon fill="#000000" stroke="#000000" points="1084.427,-169.5001 1074.4269,-173 1084.4269,-176.5001 1084.427,-169.5001"/>
</g>
<!-- CreateVerenigingAdminComponent -->
<g id="node3" class="node">
<title>CreateVerenigingAdminComponent</title>
<polygon fill="#ffffb3" stroke="#000000" points="1634.7296,-122 1415.2704,-122 1415.2704,-86 1634.7296,-86 1634.7296,-122"/>
<text text-anchor="middle" x="1525" y="-99.8" font-family="Times,serif" font-size="14.00" fill="#000000">CreateVerenigingAdminComponent</text>
</g>
<!-- CreateVerenigingAdminComponent&#45;&gt;AdminModule -->
<g id="edge3" class="edge">
<title>CreateVerenigingAdminComponent&#45;&gt;AdminModule</title>
<path fill="none" stroke="#000000" d="M1525,-122.2667C1525,-140.5552 1525,-166 1525,-166 1525,-166 1084.3103,-166 1084.3103,-166"/>
<polygon fill="#000000" stroke="#000000" points="1084.3103,-162.5001 1074.3103,-166 1084.3103,-169.5001 1084.3103,-162.5001"/>
</g>
<!-- DetailGebruikerComponent -->
<g id="node4" class="node">
<title>DetailGebruikerComponent</title>
<polygon fill="#ffffb3" stroke="#000000" points="1397.2878,-122 1224.7122,-122 1224.7122,-86 1397.2878,-86 1397.2878,-122"/>
<text text-anchor="middle" x="1311" y="-99.8" font-family="Times,serif" font-size="14.00" fill="#000000">DetailGebruikerComponent</text>
</g>
<!-- DetailGebruikerComponent&#45;&gt;AdminModule -->
<g id="edge4" class="edge">
<title>DetailGebruikerComponent&#45;&gt;AdminModule</title>
<path fill="none" stroke="#000000" d="M1311,-122.0091C1311,-138.0494 1311,-159 1311,-159 1311,-159 1084.4909,-159 1084.4909,-159"/>
<polygon fill="#000000" stroke="#000000" points="1084.4909,-155.5001 1074.4909,-159 1084.4909,-162.5001 1084.4909,-155.5001"/>
</g>
<!-- EditGebruikerComponent -->
<g id="node5" class="node">
<title>EditGebruikerComponent</title>
<polygon fill="#ffffb3" stroke="#000000" points="1206.9143,-122 1045.0857,-122 1045.0857,-86 1206.9143,-86 1206.9143,-122"/>
<text text-anchor="middle" x="1126" y="-99.8" font-family="Times,serif" font-size="14.00" fill="#000000">EditGebruikerComponent</text>
</g>
<!-- EditGebruikerComponent&#45;&gt;AdminModule -->
<g id="edge5" class="edge">
<title>EditGebruikerComponent&#45;&gt;AdminModule</title>
<path fill="none" stroke="#000000" d="M1059.756,-122.1061C1059.756,-122.1061 1059.756,-140.991 1059.756,-140.991"/>
<polygon fill="#000000" stroke="#000000" points="1056.256,-140.9909 1059.756,-150.991 1063.256,-140.991 1056.256,-140.9909"/>
</g>
<!-- EditVerenigingAdminComponent -->
<g id="node6" class="node">
<title>EditVerenigingAdminComponent</title>
<polygon fill="#ffffb3" stroke="#000000" points="1027.0321,-122 820.9679,-122 820.9679,-86 1027.0321,-86 1027.0321,-122"/>
<text text-anchor="middle" x="924" y="-99.8" font-family="Times,serif" font-size="14.00" fill="#000000">EditVerenigingAdminComponent</text>
</g>
<!-- EditVerenigingAdminComponent&#45;&gt;AdminModule -->
<g id="edge6" class="edge">
<title>EditVerenigingAdminComponent&#45;&gt;AdminModule</title>
<path fill="none" stroke="#000000" d="M1001.5235,-122.1061C1001.5235,-122.1061 1001.5235,-140.991 1001.5235,-140.991"/>
<polygon fill="#000000" stroke="#000000" points="998.0236,-140.9909 1001.5235,-150.991 1005.0236,-140.991 998.0236,-140.9909"/>
</g>
<!-- ManageEvenementenComponent -->
<g id="node7" class="node">
<title>ManageEvenementenComponent</title>
<polygon fill="#ffffb3" stroke="#000000" points="802.1134,-122 599.8866,-122 599.8866,-86 802.1134,-86 802.1134,-122"/>
<text text-anchor="middle" x="701" y="-99.8" font-family="Times,serif" font-size="14.00" fill="#000000">ManageEvenementenComponent</text>
</g>
<!-- ManageEvenementenComponent&#45;&gt;AdminModule -->
<g id="edge7" class="edge">
<title>ManageEvenementenComponent&#45;&gt;AdminModule</title>
<path fill="none" stroke="#000000" d="M701,-122.0091C701,-138.0494 701,-159 701,-159 701,-159 965.4387,-159 965.4387,-159"/>
<polygon fill="#000000" stroke="#000000" points="965.4387,-162.5001 975.4387,-159 965.4386,-155.5001 965.4387,-162.5001"/>
</g>
<!-- ManageGebruikersComponent -->
<g id="node8" class="node">
<title>ManageGebruikersComponent</title>
<polygon fill="#ffffb3" stroke="#000000" points="581.1134,-122 392.8866,-122 392.8866,-86 581.1134,-86 581.1134,-122"/>
<text text-anchor="middle" x="487" y="-99.8" font-family="Times,serif" font-size="14.00" fill="#000000">ManageGebruikersComponent</text>
</g>
<!-- ManageGebruikersComponent&#45;&gt;AdminModule -->
<g id="edge8" class="edge">
<title>ManageGebruikersComponent&#45;&gt;AdminModule</title>
<path fill="none" stroke="#000000" d="M487,-122.2667C487,-140.5552 487,-166 487,-166 487,-166 965.3506,-166 965.3506,-166"/>
<polygon fill="#000000" stroke="#000000" points="965.3506,-169.5001 975.3506,-166 965.3506,-162.5001 965.3506,-169.5001"/>
</g>
<!-- ManageVerenigingenComponent -->
<g id="node9" class="node">
<title>ManageVerenigingenComponent</title>
<polygon fill="#ffffb3" stroke="#000000" points="374.1134,-122 171.8866,-122 171.8866,-86 374.1134,-86 374.1134,-122"/>
<text text-anchor="middle" x="273" y="-99.8" font-family="Times,serif" font-size="14.00" fill="#000000">ManageVerenigingenComponent</text>
</g>
<!-- ManageVerenigingenComponent&#45;&gt;AdminModule -->
<g id="edge9" class="edge">
<title>ManageVerenigingenComponent&#45;&gt;AdminModule</title>
<path fill="none" stroke="#000000" d="M273,-122.1289C273,-142.5724 273,-173 273,-173 273,-173 965.6592,-173 965.6592,-173"/>
<polygon fill="#000000" stroke="#000000" points="965.6592,-176.5001 975.6592,-173 965.6591,-169.5001 965.6592,-176.5001"/>
</g>
<!-- MymaterialModule -->
<g id="node11" class="node">
<title>MymaterialModule</title>
<polygon fill="#8dd3c7" stroke="#000000" points="148.3613,-122 145.3613,-126 124.3613,-126 121.3613,-122 23.6387,-122 23.6387,-86 148.3613,-86 148.3613,-122"/>
<text text-anchor="middle" x="86" y="-99.8" font-family="Times,serif" font-size="14.00" fill="#000000">MymaterialModule</text>
</g>
<!-- MymaterialModule&#45;&gt;AdminModule -->
<g id="edge10" class="edge">
<title>MymaterialModule&#45;&gt;AdminModule</title>
<path fill="none" stroke="#000000" d="M86,-122.0109C86,-144.4852 86,-180 86,-180 86,-180 965.5083,-180 965.5083,-180"/>
<polygon fill="#000000" stroke="#000000" points="965.5083,-183.5001 975.5083,-180 965.5083,-176.5001 965.5083,-183.5001"/>
</g>
</g>
</svg>
