<?xml version="1.0" encoding="UTF-8" standalone="no"?>
<!DOCTYPE svg PUBLIC "-//W3C//DTD SVG 1.1//EN"
 "http://www.w3.org/Graphics/SVG/1.1/DTD/svg11.dtd">
<!-- Generated by graphviz version 2.40.1 (20161225.0304)
 -->
<!-- Title: dependencies Pages: 1 -->
<svg width="2066pt" height="284pt"
 viewBox="0.00 0.00 2066.00 284.00" xmlns="http://www.w3.org/2000/svg" xmlns:xlink="http://www.w3.org/1999/xlink">
<g id="graph0" class="graph" transform="scale(1 1) rotate(0) translate(4 280)">
<title>dependencies</title>
<polygon fill="#ffffff" stroke="transparent" points="-4,4 -4,-280 2062,-280 2062,4 -4,4"/>
<text text-anchor="start" x="1008.0091" y="-42.4" font-family="sans-serif" font-weight="bold" font-size="14.00" fill="#000000">Legend</text>
<polygon fill="#ffffb3" stroke="transparent" points="795,-10 795,-30 815,-30 815,-10 795,-10"/>
<text text-anchor="start" x="818.629" y="-15.4" font-family="sans-serif" font-size="14.00" fill="#000000"> &#160;Declarations</text>
<polygon fill="#8dd3c7" stroke="transparent" points="908,-10 908,-30 928,-30 928,-10 908,-10"/>
<text text-anchor="start" x="931.7251" y="-15.4" font-family="sans-serif" font-size="14.00" fill="#000000"> &#160;Module</text>
<polygon fill="#80b1d3" stroke="transparent" points="994,-10 994,-30 1014,-30 1014,-10 994,-10"/>
<text text-anchor="start" x="1017.7812" y="-15.4" font-family="sans-serif" font-size="14.00" fill="#000000"> &#160;Bootstrap</text>
<polygon fill="#fdb462" stroke="transparent" points="1091,-10 1091,-30 1111,-30 1111,-10 1091,-10"/>
<text text-anchor="start" x="1114.6732" y="-15.4" font-family="sans-serif" font-size="14.00" fill="#000000"> &#160;Providers</text>
<polygon fill="#fb8072" stroke="transparent" points="1187,-10 1187,-30 1207,-30 1207,-10 1187,-10"/>
<text text-anchor="start" x="1210.7258" y="-15.4" font-family="sans-serif" font-size="14.00" fill="#000000"> &#160;Exports</text>
<g id="clust1" class="cluster">
<title>cluster_AppModule</title>
<polygon fill="none" stroke="#000000" stroke-dasharray="1,5" points="8,-70 8,-268 2050,-268 2050,-70 8,-70"/>
</g>
<g id="clust2" class="cluster">
<title>cluster_AppModule_declarations</title>
<polygon fill="none" stroke="#000000" points="608,-78 608,-130 2042,-130 2042,-78 608,-78"/>
</g>
<g id="clust12" class="cluster">
<title>cluster_AppModule_imports</title>
<polygon fill="none" stroke="#000000" points="196,-78 196,-130 600,-130 600,-78 196,-78"/>
</g>
<g id="clust14" class="cluster">
<title>cluster_AppModule_bootstrap</title>
<polygon fill="none" stroke="#000000" points="888,-208 888,-260 1012,-260 1012,-208 888,-208"/>
</g>
<g id="clust15" class="cluster">
<title>cluster_AppModule_providers</title>
<polygon fill="none" stroke="#000000" points="16,-78 16,-130 188,-130 188,-78 16,-78"/>
</g>
<!-- AppComponent -->
<g id="node1" class="node">
<title>AppComponent</title>
<polygon fill="#ffffb3" stroke="#000000" points="2033.9399,-122 1928.0601,-122 1928.0601,-86 2033.9399,-86 2033.9399,-122"/>
<text text-anchor="middle" x="1981" y="-99.8" font-family="Times,serif" font-size="14.00" fill="#000000">AppComponent</text>
</g>
<!-- AppModule -->
<g id="node10" class="node">
<title>AppModule</title>
<polygon fill="#8dd3c7" stroke="#000000" points="991.6571,-187 988.6571,-191 967.6571,-191 964.6571,-187 908.3429,-187 908.3429,-151 991.6571,-151 991.6571,-187"/>
<text text-anchor="middle" x="950" y="-164.8" font-family="Times,serif" font-size="14.00" fill="#000000">AppModule</text>
</g>
<!-- AppComponent&#45;&gt;AppModule -->
<g id="edge1" class="edge">
<title>AppComponent&#45;&gt;AppModule</title>
<path fill="none" stroke="#000000" d="M1981,-122.0908C1981,-145.1328 1981,-182 1981,-182 1981,-182 1001.6934,-182 1001.6934,-182"/>
<polygon fill="#000000" stroke="#000000" points="1001.6934,-178.5001 991.6934,-182 1001.6933,-185.5001 1001.6934,-178.5001"/>
</g>
<!-- CreateLidComponent -->
<g id="node2" class="node">
<title>CreateLidComponent</title>
<polygon fill="#ffffb3" stroke="#000000" points="1910.8075,-122 1773.1925,-122 1773.1925,-86 1910.8075,-86 1910.8075,-122"/>
<text text-anchor="middle" x="1842" y="-99.8" font-family="Times,serif" font-size="14.00" fill="#000000">CreateLidComponent</text>
</g>
<!-- CreateLidComponent&#45;&gt;AppModule -->
<g id="edge2" class="edge">
<title>CreateLidComponent&#45;&gt;AppModule</title>
<path fill="none" stroke="#000000" d="M1842,-122.0449C1842,-143.6623 1842,-177 1842,-177 1842,-177 1001.8266,-177 1001.8266,-177"/>
<polygon fill="#000000" stroke="#000000" points="1001.8266,-173.5001 991.8266,-177 1001.8266,-180.5001 1001.8266,-173.5001"/>
</g>
<!-- CreateVerenigingComponent -->
<g id="node3" class="node">
<title>CreateVerenigingComponent</title>
<polygon fill="#ffffb3" stroke="#000000" points="1755.3417,-122 1574.6583,-122 1574.6583,-86 1755.3417,-86 1755.3417,-122"/>
<text text-anchor="middle" x="1665" y="-99.8" font-family="Times,serif" font-size="14.00" fill="#000000">CreateVerenigingComponent</text>
</g>
<!-- CreateVerenigingComponent&#45;&gt;AppModule -->
<g id="edge3" class="edge">
<title>CreateVerenigingComponent&#45;&gt;AppModule</title>
<path fill="none" stroke="#000000" d="M1665,-122.2228C1665,-142.3652 1665,-172 1665,-172 1665,-172 1001.7942,-172 1001.7942,-172"/>
<polygon fill="#000000" stroke="#000000" points="1001.7942,-168.5001 991.7942,-172 1001.7941,-175.5001 1001.7942,-168.5001"/>
</g>
<!-- DetailVerenigingComponent -->
<g id="node4" class="node">
<title>DetailVerenigingComponent</title>
<polygon fill="#ffffb3" stroke="#000000" points="1556.0183,-122 1377.9817,-122 1377.9817,-86 1556.0183,-86 1556.0183,-122"/>
<text text-anchor="middle" x="1467" y="-99.8" font-family="Times,serif" font-size="14.00" fill="#000000">DetailVerenigingComponent</text>
</g>
<!-- DetailVerenigingComponent&#45;&gt;AppModule -->
<g id="edge4" class="edge">
<title>DetailVerenigingComponent&#45;&gt;AppModule</title>
<path fill="none" stroke="#000000" d="M1467,-122.2222C1467,-140.8285 1467,-167 1467,-167 1467,-167 1001.8703,-167 1001.8703,-167"/>
<polygon fill="#000000" stroke="#000000" points="1001.8704,-163.5001 991.8703,-167 1001.8703,-170.5001 1001.8704,-163.5001"/>
</g>
<!-- EditVerenigingComponent -->
<g id="node5" class="node">
<title>EditVerenigingComponent</title>
<polygon fill="#ffffb3" stroke="#000000" points="1359.6442,-122 1192.3558,-122 1192.3558,-86 1359.6442,-86 1359.6442,-122"/>
<text text-anchor="middle" x="1276" y="-99.8" font-family="Times,serif" font-size="14.00" fill="#000000">EditVerenigingComponent</text>
</g>
<!-- EditVerenigingComponent&#45;&gt;AppModule -->
<g id="edge5" class="edge">
<title>EditVerenigingComponent&#45;&gt;AppModule</title>
<path fill="none" stroke="#000000" d="M1276,-122.0336C1276,-139.0597 1276,-162 1276,-162 1276,-162 1001.9514,-162 1001.9514,-162"/>
<polygon fill="#000000" stroke="#000000" points="1001.9514,-158.5001 991.9514,-162 1001.9514,-165.5001 1001.9514,-158.5001"/>
</g>
<!-- KeuzemenuComponent -->
<g id="node6" class="node">
<title>KeuzemenuComponent</title>
<polygon fill="#ffffb3" stroke="#000000" points="1174.1881,-122 1025.8119,-122 1025.8119,-86 1174.1881,-86 1174.1881,-122"/>
<text text-anchor="middle" x="1100" y="-99.8" font-family="Times,serif" font-size="14.00" fill="#000000">KeuzemenuComponent</text>
</g>
<!-- KeuzemenuComponent&#45;&gt;AppModule -->
<g id="edge6" class="edge">
<title>KeuzemenuComponent&#45;&gt;AppModule</title>
<path fill="none" stroke="#000000" d="M1100,-122.2396C1100,-137.5706 1100,-157 1100,-157 1100,-157 1001.7834,-157 1001.7834,-157"/>
<polygon fill="#000000" stroke="#000000" points="1001.7834,-153.5001 991.7834,-157 1001.7833,-160.5001 1001.7834,-153.5001"/>
</g>
<!-- LedenComponent -->
<g id="node7" class="node">
<title>LedenComponent</title>
<polygon fill="#ffffb3" stroke="#000000" points="1008.3146,-122 891.6854,-122 891.6854,-86 1008.3146,-86 1008.3146,-122"/>
<text text-anchor="middle" x="950" y="-99.8" font-family="Times,serif" font-size="14.00" fill="#000000">LedenComponent</text>
</g>
<!-- LedenComponent&#45;&gt;AppModule -->
<g id="edge7" class="edge">
<title>LedenComponent&#45;&gt;AppModule</title>
<path fill="none" stroke="#000000" d="M950,-122.1061C950,-122.1061 950,-140.991 950,-140.991"/>
<polygon fill="#000000" stroke="#000000" points="946.5001,-140.9909 950,-150.991 953.5001,-140.991 946.5001,-140.9909"/>
</g>
<!-- LoginComponent -->
<g id="node8" class="node">
<title>LoginComponent</title>
<polygon fill="#ffffb3" stroke="#000000" points="873.2758,-122 758.7242,-122 758.7242,-86 873.2758,-86 873.2758,-122"/>
<text text-anchor="middle" x="816" y="-99.8" font-family="Times,serif" font-size="14.00" fill="#000000">LoginComponent</text>
</g>
<!-- LoginComponent&#45;&gt;AppModule -->
<g id="edge8" class="edge">
<title>LoginComponent&#45;&gt;AppModule</title>
<path fill="none" stroke="#000000" d="M816,-122.2396C816,-137.5706 816,-157 816,-157 816,-157 898.3361,-157 898.3361,-157"/>
<polygon fill="#000000" stroke="#000000" points="898.3361,-160.5001 908.3361,-157 898.3361,-153.5001 898.3361,-160.5001"/>
</g>
<!-- SpinnerComponent -->
<g id="node9" class="node">
<title>SpinnerComponent</title>
<polygon fill="#ffffb3" stroke="#000000" points="740.3809,-122 615.6191,-122 615.6191,-86 740.3809,-86 740.3809,-122"/>
<text text-anchor="middle" x="678" y="-99.8" font-family="Times,serif" font-size="14.00" fill="#000000">SpinnerComponent</text>
</g>
<!-- SpinnerComponent&#45;&gt;AppModule -->
<g id="edge9" class="edge">
<title>SpinnerComponent&#45;&gt;AppModule</title>
<path fill="none" stroke="#000000" d="M678,-122.0336C678,-139.0597 678,-162 678,-162 678,-162 898.0961,-162 898.0961,-162"/>
<polygon fill="#000000" stroke="#000000" points="898.0961,-165.5001 908.0961,-162 898.0961,-158.5001 898.0961,-165.5001"/>
</g>
<!-- AppComponent  -->
<g id="node14" class="node">
<title>AppComponent </title>
<polygon fill="#80b1d3" stroke="#000000" points="1004.439,-252 895.561,-252 895.561,-216 1004.439,-216 1004.439,-252"/>
<text text-anchor="middle" x="950" y="-229.8" font-family="Times,serif" font-size="14.00" fill="#000000">AppComponent </text>
</g>
<!-- AppModule&#45;&gt;AppComponent  -->
<g id="edge13" class="edge">
<title>AppModule&#45;&gt;AppComponent </title>
<path fill="none" stroke="#000000" stroke-dasharray="1,5" d="M950,-187.1061C950,-187.1061 950,-205.991 950,-205.991"/>
<polygon fill="#000000" stroke="#000000" points="946.5001,-205.9909 950,-215.991 953.5001,-205.991 946.5001,-205.9909"/>
</g>
<!-- AdminModule -->
<g id="node11" class="node">
<title>AdminModule</title>
<polygon fill="#8dd3c7" stroke="#000000" points="592.4386,-122 589.4386,-126 568.4386,-126 565.4386,-122 493.5614,-122 493.5614,-86 592.4386,-86 592.4386,-122"/>
<text text-anchor="middle" x="543" y="-99.8" font-family="Times,serif" font-size="14.00" fill="#000000">AdminModule</text>
</g>
<!-- AdminModule&#45;&gt;AppModule -->
<g id="edge10" class="edge">
<title>AdminModule&#45;&gt;AppModule</title>
<path fill="none" stroke="#000000" d="M543,-122.2222C543,-140.8285 543,-167 543,-167 543,-167 897.9768,-167 897.9768,-167"/>
<polygon fill="#000000" stroke="#000000" points="897.9768,-170.5001 907.9768,-167 897.9768,-163.5001 897.9768,-170.5001"/>
</g>
<!-- AppRoutingModule -->
<g id="node12" class="node">
<title>AppRoutingModule</title>
<polygon fill="#8dd3c7" stroke="#000000" points="475.2744,-122 472.2744,-126 451.2744,-126 448.2744,-122 346.7256,-122 346.7256,-86 475.2744,-86 475.2744,-122"/>
<text text-anchor="middle" x="411" y="-99.8" font-family="Times,serif" font-size="14.00" fill="#000000">AppRoutingModule</text>
</g>
<!-- AppRoutingModule&#45;&gt;AppModule -->
<g id="edge11" class="edge">
<title>AppRoutingModule&#45;&gt;AppModule</title>
<path fill="none" stroke="#000000" d="M411,-122.2228C411,-142.3652 411,-172 411,-172 411,-172 898.1541,-172 898.1541,-172"/>
<polygon fill="#000000" stroke="#000000" points="898.1541,-175.5001 908.1541,-172 898.154,-168.5001 898.1541,-175.5001"/>
</g>
<!-- MymaterialModule -->
<g id="node13" class="node">
<title>MymaterialModule</title>
<polygon fill="#8dd3c7" stroke="#000000" points="328.3613,-122 325.3613,-126 304.3613,-126 301.3613,-122 203.6387,-122 203.6387,-86 328.3613,-86 328.3613,-122"/>
<text text-anchor="middle" x="266" y="-99.8" font-family="Times,serif" font-size="14.00" fill="#000000">MymaterialModule</text>
</g>
<!-- MymaterialModule&#45;&gt;AppModule -->
<g id="edge12" class="edge">
<title>MymaterialModule&#45;&gt;AppModule</title>
<path fill="none" stroke="#000000" d="M266,-122.0449C266,-143.6623 266,-177 266,-177 266,-177 898.2424,-177 898.2424,-177"/>
<polygon fill="#000000" stroke="#000000" points="898.2424,-180.5001 908.2424,-177 898.2423,-173.5001 898.2424,-180.5001"/>
</g>
<!-- TokenInterceptor -->
<g id="node15" class="node">
<title>TokenInterceptor</title>
<ellipse fill="#fdb462" stroke="#000000" cx="102" cy="-104" rx="78.1308" ry="18"/>
<text text-anchor="middle" x="102" y="-99.8" font-family="Times,serif" font-size="14.00" fill="#000000">TokenInterceptor</text>
</g>
<!-- TokenInterceptor&#45;&gt;AppModule -->
<g id="edge14" class="edge">
<title>TokenInterceptor&#45;&gt;AppModule</title>
<path fill="none" stroke="#000000" d="M102,-122.0908C102,-145.1328 102,-182 102,-182 102,-182 898.2368,-182 898.2368,-182"/>
<polygon fill="#000000" stroke="#000000" points="898.2368,-185.5001 908.2368,-182 898.2368,-178.5001 898.2368,-185.5001"/>
</g>
</g>
</svg>
